<svg xmlns="http://www.w3.org/2000/svg" xmlns:xlink="http://www.w3.org/1999/xlink" version="1.1" x="0px" y="0px" viewBox="0 0 480 600" style="enable-background:new 0 0 480 480;" xml:space="preserve"><style type="text/css">
	.st0{fill-rule:evenodd;clip-rule:evenodd;}
</style><path class="st0" d="M351.56,310.05c1.44-2.22,4.4-2.85,6.62-1.41c2.22,1.44,2.85,4.4,1.41,6.62c-4.1,6.27-9.12,12.44-16,17.67  c-6.89,5.24-15.57,9.45-26.89,11.77c-2.59,0.53-5.12-1.14-5.64-3.73c-0.53-2.59,1.14-5.12,3.73-5.64c9.79-2,17.2-5.59,23.03-10.01  C343.64,320.89,347.98,315.53,351.56,310.05L351.56,310.05z M295.88,193.38c-0.31-0.45-0.65-0.87-1.03-1.28  c-0.18-0.2-0.38-0.38-0.59-0.54c-10.98-11.93-24.55-21.17-39.72-27.45c-12.93-5.35-27.04-8.55-41.72-9.43  c3.02-4.93,4.77-10.73,4.77-16.94c0-8.96-3.63-17.07-9.5-22.94s-13.98-9.5-22.94-9.5c-8.96,0-17.07,3.63-22.94,9.5  c-5.87,5.87-9.5,13.98-9.5,22.94c0,8.7,3.42,16.59,8.99,22.42c-9.7,2.69-19.21,6.13-28.22,10.53c-12.15,5.92-23.48,13.57-33.3,23.42  l-0.01,0.01l-0.05,0.05l-0.04,0.04c-3.75,3.85-4.12,8.67-2.42,13.05c0.76,1.95,1.93,3.79,3.39,5.35c1.45,1.55,3.2,2.88,5.11,3.83  c4.63,2.29,10.16,2.45,14.95-1.35l0,0c6.83-5.27,16-11.44,24.54-15.03c5.7-2.4,10.97-3.62,14.61-2.47l0,0l0.13,0.04  c6,1.71,11.52,4.34,16,7.91c3.98,3.16,7.16,7.06,9.13,11.7c0.03,0.07,0.06,0.15,0.1,0.22c1.07,2.35-2.14,6.46-6.48,12  c-4.39,5.61-9.65,12.34-13.42,21.06l-0.51,0.11c-19.55,4.37-55.72,12.45-57.98,25.25c-0.2,1.14,0.02,2.25,0.55,3.18  c9.58,20.63,37.57,50.37,81.37,71.13c31.73,15.04,71.86,25.48,119.43,24.45c2.64-0.05,4.74-2.23,4.69-4.88  c-0.01-0.58-0.12-1.13-0.32-1.64c-7.76-23.13-22.46-42.57-38.82-58.45c-15.37-14.92-32.22-26.7-46.1-35.42  c0.12-1.23,0.37-2.41,0.75-3.53c1.24-3.73,3.88-6.91,7.49-9.29c0.07-0.04,0.14-0.08,0.21-0.13c24.47-16.21,22.08-31.91,13.25-45.25  c-3.74-5.65-8.65-10.65-12.95-15.03c-2.05-2.09-3.97-3.88-5.44-5.25c7.24,1.46,15.93,3.94,24.05,7.18  c8.43,3.36,16.15,7.5,20.72,12.07c0.27,0.27,0.56,0.5,0.87,0.69c3.98,2.96,8.05,3.08,11.67,1.47c1.98-0.89,3.73-2.3,5.16-4.02  c1.31-1.58,2.39-3.48,3.15-5.52c1.7-4.53,1.74-9.76-0.74-13.76C296.11,193.71,296,193.54,295.88,193.38L295.88,193.38z   M288.23,199.14c0.67,1.28,0.47,3.27-0.24,5.16c-0.37,1-0.91,1.94-1.57,2.74c-0.54,0.65-1.11,1.15-1.67,1.4  c-0.54,0.24-1.21,0.18-1.98-0.33c-5.53-5.47-14.36-10.26-23.85-14.04c-11.78-4.7-24.7-7.92-33.4-8.96c-1.79-0.21-3.47,0.6-4.46,1.97  c-5.13,6.35,1.05,12.66,8.9,20.66c3.98,4.06,8.53,8.7,11.78,13.61c6.05,9.13,7.41,20.07-10.55,31.97c-0.05,0.03-0.1,0.07-0.15,0.11  c-5.39,3.55-9.37,8.43-11.33,14.3c-1.82,5.45-1.84,11.66,0.42,18.32l9.1,31.47l-0.01,0c0.44,1.52,0.17,2.74-0.56,3.56  c-0.61,0.68-1.54,1.2-2.71,1.53c-1.39,0.39-3.05,0.46-4.88,0.15c-5.25-0.89-11.41-4.89-16.14-13.47l-7.23-26.13  c-0.55-2.57-0.89-5.67-0.9-8.82c0-2.78,0.25-5.59,0.84-8.06l0,0l0.02,0l0.11-0.45c0.02-0.06,0.03-0.13,0.04-0.19  c0.83-3.51,2.58-10.44,10.4-16.55c2.08-1.63,2.45-4.63,0.82-6.71c-1.63-2.08-4.63-2.45-6.71-0.82  c-10.46,8.18-12.75,17.28-13.84,21.88c-0.02,0.06-0.03,0.13-0.05,0.19l-0.11,0.45l0.02,0c-0.78,3.25-1.11,6.81-1.1,10.27  c0.01,3.93,0.43,7.75,1.09,10.86l0.01,0c0.02,0.09,0.04,0.19,0.07,0.28l4.36,15.73c-1.07,1.06-2.09,1.78-3.05,2.2  c-1.72,0.76-3.47,0.48-5.14-0.46c-2.27-1.28-4.47-3.65-6.45-6.51c-3.95-5.72-6.77-13.09-7.7-18.31  c-1.07-20.65,8.95-33.47,16.24-42.79c6.39-8.17,11.13-14.23,7.65-21.85c-2.64-6.21-6.8-11.35-11.97-15.46  c-5.49-4.36-12.11-7.55-19.21-9.6v0c-6.07-1.92-13.56-0.41-21.21,2.81c-9.47,3.98-19.4,10.65-26.73,16.31l-0.05,0.04l0,0  c-1.43,1.14-3.21,1.02-4.75,0.26c-0.86-0.43-1.66-1.04-2.34-1.76c-0.66-0.71-1.18-1.49-1.48-2.28c-0.41-1.06-0.39-2.16,0.36-2.93  c8.99-9.01,19.45-16.07,30.73-21.56c10.92-5.32,22.55-9.16,34.32-11.9c4.02,1.79,8.47,2.78,13.16,2.78c7.13,0,13.72-2.3,19.08-6.2  c16.5-0.02,32.38,3.05,46.68,8.97C265.27,178.9,278.04,187.72,288.23,199.14L288.23,199.14z M230.41,287.17  c11.75,7.79,24.9,17.58,37.05,29.37c13.96,13.55,26.6,29.75,34.21,48.6c-42.97-0.08-79.37-9.84-108.42-23.61  c-40.57-19.23-66.63-46.07-76.09-65.07c3.75-5.63,28.33-11.58,45.13-15.38c-1.19,5.3-1.77,11.21-1.39,17.84  c0.01,0.18,0.03,0.35,0.06,0.52l0,0c1.08,6.36,4.51,15.44,9.32,22.41c2.75,3.99,6,7.39,9.63,9.43c4.24,2.39,8.86,3,13.69,0.87  c0.65-0.29,1.3-0.62,1.94-1.01l0.33,1.18l0,0c0.09,0.33,0.22,0.66,0.39,0.98c6.37,11.92,15.38,17.55,23.25,18.88  c3.22,0.55,6.3,0.38,9-0.37c2.93-0.81,5.44-2.32,7.28-4.38c2.9-3.23,4.08-7.6,2.66-12.56l-0.01,0l-0.01-0.02L230.41,287.17  L230.41,287.17z M185.14,114.89c6.31,0,12.02,2.56,16.16,6.69c4.13,4.13,6.69,9.85,6.69,16.16c0,6.31-2.56,12.02-6.69,16.16  c-4.13,4.13-9.85,6.69-16.16,6.69s-12.02-2.56-16.16-6.69c-4.13-4.13-6.69-9.85-6.69-16.16c0-6.31,2.56-12.02,6.69-16.16  C173.12,117.45,178.84,114.89,185.14,114.89L185.14,114.89z M323.09,362.77c23.53-8.34,40.52-23.55,50.34-41.07  c6.82-12.18,10.18-25.51,9.87-38.47c-0.31-13.07-4.35-25.75-12.33-36.52c-9.52-12.85-24.6-22.91-45.56-27.53  c-0.09-0.02-0.18-0.04-0.26-0.05l0-0.01c-21.15-3.48-48.61,10.06-63.25,24.02c-4.06,3.87-7.23,7.85-9.13,11.61  c-2.29,4.53-2.85,8.9-1.18,12.75c1.57,3.62,4.95,6.37,10.5,7.82c0.04,2.75,0.78,5.22,2.01,7.29c0.9,1.51,2.06,2.8,3.4,3.81  c1.34,1.01,2.87,1.76,4.53,2.22c2.72,0.75,5.76,0.69,8.77-0.37c0.71,0.46,1.45,0.86,2.2,1.21c3.68,1.68,7.71,1.97,11.6,1.01  c3.72-0.92,7.31-2.99,10.25-6.05c1.86-1.93,3.47-4.27,4.71-6.97c0.71-1.54,2.11-2.58,3.75-3.27c2.73-1.15,5.97-1.34,8.29-1.18  c1.15,0.27,2.29,0.79,3.24,1.56c1.08,0.87,1.9,2.05,2.17,3.52c0.32,1.77-0.05,4.04-1.49,6.87c-2.09,4.09-6.24,8.99-13.36,14.72  c-0.11,0.09-0.22,0.19-0.33,0.29c-2.92,2.04-6.66,3.28-10.92,3.18c-4.82-0.11-10.34-1.91-16.22-6.15c-2.14-1.54-5.13-1.06-6.68,1.09  c-1.54,2.14-1.06,5.13,1.09,6.68c7.58,5.47,14.98,7.8,21.62,7.95c8.05,0.18,14.93-2.86,19.75-7.5c6.86-5.87,11.14-11.21,13.55-15.91  c2.49-4.88,3.06-9.22,2.39-12.9c-0.73-3.98-2.84-7.09-5.58-9.3c-2.23-1.79-4.9-2.98-7.56-3.52l0,0c-0.18-0.04-0.36-0.06-0.54-0.08  c-3.47-0.31-8.63-0.03-13.14,1.87c-3.64,1.53-6.88,4.07-8.73,8.1c-0.77,1.67-1.76,3.12-2.91,4.31c-1.67,1.74-3.64,2.89-5.64,3.39  c-1.84,0.45-3.7,0.34-5.34-0.41c-0.76-0.35-1.51-0.86-2.2-1.53l0,0c-1.52-1.46-3.88-1.79-5.77-0.66c-1.58,0.94-3.14,1.17-4.41,0.81  c-0.47-0.13-0.91-0.35-1.3-0.65c-0.39-0.29-0.71-0.65-0.96-1.07c-0.67-1.13-0.88-2.76-0.36-4.8c0.1-0.3,0.17-0.62,0.2-0.95  c0.29-2.63-1.61-5-4.24-5.29c-4.59-0.51-6.94-1.58-7.55-2.98c-0.44-1.01-0.06-2.62,0.95-4.61c1.4-2.76,3.9-5.85,7.18-8.98  c12.99-12.39,36.98-24.47,55.07-21.51c18.4,4.1,31.53,12.8,39.71,23.84c6.76,9.13,10.19,19.91,10.46,31.04  c0.27,11.24-2.68,22.86-8.67,33.56c-8.75,15.63-23.99,29.21-45.16,36.72c-2.5,0.88-3.8,3.62-2.93,6.11  C317.85,362.34,320.59,363.65,323.09,362.77z"/></svg>