<svg width="480" height="450" xmlns="http://www.w3.org/2000/svg" xml:space="preserve" version="1.1">
 <title>Surfer</title>

 <g>
  <title>Layer 1</title>
  <path stroke="#ffffff" fill="#f5b841" id="svg_1" clip-rule="evenodd" fill-rule="evenodd" d="m425.39653,342.17876c2.39956,-3.69933 7.332,-4.74914 11.03133,-2.34957c3.69933,2.39956 4.74914,7.332 2.34957,11.03133c-6.83209,10.4481 -15.19724,20.72957 -26.66182,29.44465c-11.48125,8.73175 -25.94529,15.74714 -44.80852,19.6131c-4.31588,0.88317 -8.53178,-1.89965 -9.39829,-6.21554c-0.88317,-4.31588 1.89965,-8.53178 6.21554,-9.39829c16.3137,-3.33273 28.66146,-9.31497 38.37636,-16.6803c9.69824,-7.38199 16.93026,-16.3137 22.89584,-25.44538l0,0zm-92.78314,-194.41467c-0.51657,-0.74986 -1.08314,-1.44974 -1.71635,-2.13295c-0.29995,-0.33327 -0.63322,-0.63322 -0.98315,-0.89984c-18.29668,-19.87972 -40.90923,-35.27692 -66.18797,-45.74169c-21.54608,-8.91505 -45.05848,-14.24741 -69.5207,-15.71381c5.03242,-8.21517 7.94856,-17.88008 7.94856,-28.2282c0,-14.93062 -6.0489,-28.44483 -15.83046,-38.22639s-23.29577,-15.83046 -38.22639,-15.83046c-14.93062,0 -28.44483,6.0489 -38.22639,15.83046c-9.78156,9.78156 -15.83046,23.29577 -15.83046,38.22639c0,14.49737 5.69896,27.64498 14.98061,37.35988c-16.16373,4.48252 -32.01085,10.21481 -47.02479,17.54681c-20.24632,9.86487 -39.12622,22.61256 -55.48992,39.02624l-0.01666,0.01666l-0.08332,0.08332l-0.06665,0.06665c-6.24886,6.4155 -6.86542,14.44737 -4.0326,21.74605c1.26644,3.24941 3.21608,6.31552 5.64897,8.91505c2.41623,2.58286 5.33236,4.79913 8.51512,6.38217c7.71526,3.81597 16.93026,4.08259 24.91214,-2.24959l0,0c11.38127,-8.78174 26.66182,-19.0632 40.89257,-25.04545c9.49827,-3.99927 18.28001,-6.03224 24.34558,-4.11592l0,0l0.21663,0.06665c9.99818,2.84948 19.19651,7.23202 26.66182,13.18094c6.63213,5.26571 11.93117,11.76453 15.2139,19.49646c0.04999,0.11665 0.09998,0.24995 0.16664,0.3666c1.78301,3.91596 -3.56602,10.76471 -10.79804,19.99637c-7.31534,9.3483 -16.08041,20.56293 -22.3626,35.09362l-0.84985,0.1833c-32.57741,7.28201 -92.84979,20.74623 -96.61578,42.07569c-0.33327,1.89965 0.03333,3.74932 0.9165,5.29904c15.96377,34.37709 62.60529,83.93475 135.59203,118.52846c52.87373,25.06211 119.74491,42.45895 199.01384,40.7426c4.3992,-0.08332 7.89856,-3.71599 7.81525,-8.13186c-0.01666,-0.96649 -0.19996,-1.88299 -0.53324,-2.73284c-12.93098,-38.543 -37.42653,-70.93711 -64.68825,-97.39897c-25.61201,-24.86215 -53.69024,-44.49192 -76.81937,-59.02261c0.19996,-2.04963 0.61655,-4.01594 1.24977,-5.88226c2.06629,-6.21554 6.46549,-11.51457 12.48107,-15.48052c0.11665,-0.06665 0.23329,-0.13331 0.34994,-0.21663c40.77592,-27.01176 36.79331,-53.17367 22.07932,-75.40296c-6.2322,-9.41496 -14.41405,-17.74678 -21.57941,-25.04545c-3.41605,-3.4827 -6.61546,-6.46549 -9.06502,-8.74841c12.06447,2.43289 26.54518,6.56547 40.07605,11.96449c14.04745,5.59898 26.91178,12.49773 34.52706,20.11301c0.44992,0.44992 0.93316,0.83318 1.44974,1.14979c6.63213,4.93244 13.41423,5.1324 19.44647,2.44955c3.2994,-1.48306 6.21554,-3.83264 8.59844,-6.69878c2.18294,-2.63285 3.98261,-5.79895 5.24905,-9.19833c2.83282,-7.54863 2.89947,-16.26371 -1.23311,-22.92917c-0.1833,-0.28328 -0.3666,-0.56656 -0.56656,-0.83318l0,0zm-12.74768,9.59826c1.11646,2.13295 0.78319,5.44901 -0.39993,8.59844c-0.61655,1.66636 -1.51639,3.23275 -2.61619,4.56584c-0.89984,1.08314 -1.84966,1.91632 -2.78283,2.33291c-0.89984,0.39993 -2.0163,0.29995 -3.2994,-0.5499c-9.21499,-9.11501 -23.92899,-17.09689 -39.74278,-23.39575c-19.62977,-7.83191 -41.15919,-13.1976 -55.65655,-14.93062c-2.98279,-0.34994 -5.78228,0.99982 -7.43198,3.28274c-8.54845,10.58141 1.74968,21.09617 14.83064,34.42708c6.63213,6.76544 14.21408,14.49737 19.62977,22.67921c10.0815,15.2139 12.34776,33.44392 -17.58014,53.27365c-0.08332,0.04999 -0.16664,0.11665 -0.24995,0.1833c-8.9817,5.91559 -15.61383,14.04745 -18.8799,23.829c-3.03278,9.08168 -3.06611,19.4298 0.69987,30.52779l15.16391,52.44047l-0.01666,0c0.7332,2.53287 0.28328,4.56584 -0.93316,5.93226c-1.01648,1.13313 -2.5662,1.99964 -4.51585,2.54954c-2.31625,0.64988 -5.08241,0.76653 -8.13186,0.24995c-8.74841,-1.48306 -19.01321,-8.14852 -26.89511,-22.44592l-12.04781,-43.54209c-0.9165,-4.28256 -1.48306,-9.44828 -1.49973,-14.69733c0,-4.63249 0.41659,-9.31497 1.39975,-13.43089l0,0l0.03333,0l0.1833,-0.74986c0.03333,-0.09998 0.04999,-0.21663 0.06665,-0.31661c1.38308,-5.84894 4.29922,-17.39684 17.33018,-27.57832c3.46604,-2.71617 4.08259,-7.71526 1.36642,-11.1813c-2.71617,-3.46604 -7.71526,-4.08259 -11.1813,-1.36642c-17.43017,13.63086 -21.24614,28.79477 -23.06248,36.46004c-0.03333,0.09998 -0.04999,0.21663 -0.08332,0.31661l-0.1833,0.74986l0.03333,0c-1.29976,5.41568 -1.84966,11.34794 -1.833,17.11356c0.01666,6.54881 0.71654,12.91432 1.81634,18.09671l0.01666,0c0.03333,0.14997 0.06665,0.31661 0.11665,0.46658l7.26535,26.2119c-1.78301,1.76635 -3.4827,2.96613 -5.08241,3.666c-2.86615,1.26644 -5.78228,0.79985 -8.56511,-0.76653c-3.78265,-2.13295 -7.44865,-6.08223 -10.74805,-10.84803c-6.58214,-9.5316 -11.28128,-21.8127 -12.831,-30.51112c-1.78301,-34.41041 14.91396,-55.7732 27.06175,-71.30371c10.64807,-13.61419 18.54663,-23.71236 12.74768,-36.41005c-4.3992,-10.34812 -11.33127,-18.91323 -19.94638,-25.76199c-9.14834,-7.26535 -20.17967,-12.58105 -32.01085,-15.99709l0,0c-10.11483,-3.19942 -22.59589,-0.68321 -35.34358,4.68248c-15.78047,6.63213 -32.32746,17.74678 -44.54191,27.17839l-0.08332,0.06665l0,0c-2.3829,1.89965 -5.34903,1.69969 -7.91523,0.43325c-1.43307,-0.71654 -2.76616,-1.73302 -3.89929,-2.9328c-1.0998,-1.18312 -1.96631,-2.48288 -2.46622,-3.79931c-0.68321,-1.76635 -0.64988,-3.59935 0.59989,-4.88245c14.98061,-15.01394 32.41078,-26.77847 51.20736,-35.9268c18.19669,-8.86506 37.57651,-15.26389 57.18961,-19.82973c6.69878,2.98279 14.1141,4.63249 21.92935,4.63249c11.88117,0 22.86251,-3.83264 31.79422,-10.33146c27.495,-0.03333 53.95686,5.08241 77.78586,14.94728c23.92899,9.86487 45.20845,24.5622 62.1887,43.59208l0,0zm-96.34916,146.69001c19.57978,12.98097 41.49246,29.29468 61.73878,48.94111c23.26244,22.57923 44.32528,49.57432 57.00631,80.98528c-71.60366,-0.13331 -132.2593,-16.39702 -180.66717,-39.34285c-67.60438,-32.04418 -111.02982,-76.76938 -126.79363,-108.4303c6.24886,-9.38163 47.20809,-19.29649 75.203,-25.62868c-1.98297,8.83173 -2.94946,18.67994 -2.31625,29.72793c0.01666,0.29995 0.04999,0.58323 0.09998,0.86651l0,0c1.79967,10.59807 7.5153,25.72866 15.53051,37.34321c4.5825,6.64879 9.99818,12.31443 16.04708,15.71381c7.06538,3.98261 14.76398,4.99909 22.81252,1.44974c1.08314,-0.48325 2.16627,-1.03315 3.23275,-1.68303l0.5499,1.96631l0,0c0.14997,0.5499 0.3666,1.0998 0.64988,1.63304c10.61474,19.86306 25.62868,29.24469 38.74296,31.46095c5.36569,0.9165 10.49809,0.63322 14.99727,-0.61655c4.88245,-1.34975 9.06502,-3.86596 12.13113,-7.29867c4.83246,-5.38236 6.79876,-12.66437 4.43253,-20.92953l-0.01666,0l-0.01666,-0.03333l-13.36424,-46.12495l0,0zm-75.43629,-287.08117c10.51476,0 20.02969,4.26589 26.92844,11.14797c6.88208,6.88208 11.14797,16.41368 11.14797,26.92844c0,10.51476 -4.26589,20.02969 -11.14797,26.92844c-6.88208,6.88208 -16.41368,11.14797 -26.92844,11.14797s-20.02969,-4.26589 -26.92844,-11.14797c-6.88208,-6.88208 -11.14797,-16.41368 -11.14797,-26.92844c0,-10.51476 4.26589,-20.02969 11.14797,-26.92844c6.89875,-6.88208 16.43035,-11.14797 26.92844,-11.14797l0,0zm229.87489,413.05827c39.20954,-13.89747 67.52106,-39.24287 83.88476,-68.43756c11.3646,-20.29631 16.96358,-42.50894 16.44701,-64.10502c-0.51657,-21.77938 -7.24868,-42.90887 -20.54627,-60.85561c-15.86378,-21.41278 -40.99255,-38.1764 -75.91954,-45.875c-0.14997,-0.03333 -0.29995,-0.06665 -0.43325,-0.08332l0,-0.01666c-35.2436,-5.79895 -81.00195,16.76362 -105.39751,40.02606c-6.76544,6.44883 -12.04781,13.08096 -15.2139,19.34648c-3.81597,7.54863 -4.74914,14.83064 -1.96631,21.24614c2.61619,6.03224 8.2485,10.61474 17.49682,13.03097c0.06665,4.5825 1.29976,8.69842 3.34939,12.14779c1.49973,2.51621 3.43271,4.66582 5.66564,6.34885c2.23293,1.68303 4.78246,2.9328 7.54863,3.69933c4.53251,1.24977 9.59826,1.14979 14.61401,-0.61655c1.18312,0.76653 2.41623,1.43307 3.666,2.0163c6.13222,2.79949 12.84767,3.28274 19.32982,1.68303c6.19887,-1.53305 12.18112,-4.98243 17.08023,-10.0815c3.09944,-3.21608 5.78228,-7.11537 7.84857,-11.61456c1.18312,-2.5662 3.51603,-4.29922 6.24886,-5.44901c4.54917,-1.91632 9.94819,-2.23293 13.81416,-1.96631c1.91632,0.44992 3.81597,1.31643 5.39902,2.59953c1.79967,1.44974 3.16609,3.41605 3.61601,5.8656c0.53324,2.94946 -0.08332,6.73211 -2.48288,11.44792c-3.4827,6.81543 -10.39811,14.98061 -22.26262,24.52888c-0.1833,0.14997 -0.3666,0.31661 -0.5499,0.48325c-4.86578,3.39938 -11.09798,5.46567 -18.19669,5.29904c-8.03187,-0.1833 -17.2302,-3.18275 -27.02842,-10.24814c-3.56602,-2.5662 -8.54845,-1.76635 -11.13131,1.81634c-2.5662,3.56602 -1.76635,8.54845 1.81634,11.13131c12.63104,9.11501 24.96213,12.99764 36.02679,13.24759c13.41423,0.29995 24.87881,-4.7658 32.91069,-12.49773c11.43126,-9.78156 18.56329,-18.67994 22.57923,-26.51185c4.14925,-8.13186 5.09907,-15.36387 3.98261,-21.49609c-1.21645,-6.63213 -4.73247,-11.81452 -9.29831,-15.49718c-3.71599,-2.98279 -8.16518,-4.96576 -12.59771,-5.8656l0,0c-0.29995,-0.06665 -0.59989,-0.09998 -0.89984,-0.13331c-5.78228,-0.51657 -14.38072,-0.04999 -21.89602,3.1161c-6.06556,2.54954 -11.46458,6.7821 -14.54736,13.49755c-1.2831,2.78283 -2.9328,5.19906 -4.84912,7.18203c-2.78283,2.89947 -6.06556,4.81579 -9.39829,5.64897c-3.06611,0.74986 -6.16555,0.56656 -8.89838,-0.68321c-1.26644,-0.58323 -2.51621,-1.43307 -3.666,-2.54954l0,0c-2.53287,-2.43289 -6.46549,-2.98279 -9.61492,-1.0998c-2.63285,1.56638 -5.23238,1.94965 -7.34866,1.34975c-0.78319,-0.21663 -1.51639,-0.58323 -2.16627,-1.08314c-0.64988,-0.48325 -1.18312,-1.08314 -1.59971,-1.78301c-1.11646,-1.88299 -1.4664,-4.59916 -0.59989,-7.99855c0.16664,-0.49991 0.28328,-1.03315 0.33327,-1.58305c0.48325,-4.38254 -2.68285,-8.33182 -7.06538,-8.81506c-7.64861,-0.84985 -11.56457,-2.63285 -12.58105,-4.96576c-0.7332,-1.68303 -0.09998,-4.36587 1.58305,-7.68194c2.33291,-4.59916 6.49882,-9.74823 11.96449,-14.96395c21.64607,-20.64625 61.62214,-40.77592 91.76666,-35.84349c30.6611,6.83209 52.54045,21.32946 66.17131,39.72611c11.26462,15.2139 16.98025,33.1773 17.43017,51.72393c0.44992,18.72993 -4.46586,38.09308 -14.44737,55.92317c-14.58068,26.04527 -39.97607,48.67449 -75.25299,61.18888c-4.16591,1.4664 -6.33218,6.03224 -4.88245,10.18148c1.43307,4.18257 5.99891,6.36551 10.16482,4.89911z" class="st0"/>
 </g>
</svg>